<mxfile host="app.diagrams.net" agent="Mozilla/5.0 (X11; Linux x86_64) AppleWebKit/537.36 (KHTML, like Gecko) Chrome/138.0.0.0 Safari/537.36" version="27.2.0">
  <diagram id="C5RBs43oDa-KdzZeNtuy" name="Page-1">
    <mxGraphModel dx="1406" dy="854" grid="1" gridSize="10" guides="1" tooltips="1" connect="1" arrows="1" fold="1" page="1" pageScale="1" pageWidth="827" pageHeight="1169" math="0" shadow="0">
      <root>
        <mxCell id="WIyWlLk6GJQsqaUBKTNV-0" />
        <mxCell id="WIyWlLk6GJQsqaUBKTNV-1" parent="WIyWlLk6GJQsqaUBKTNV-0" />
        <object label="User" id="GL9MwRehZxttcT5kYBKg-0">
          <mxCell style="swimlane;fontStyle=0;childLayout=stackLayout;horizontal=1;startSize=26;fillColor=none;horizontalStack=0;resizeParent=1;resizeParentMax=0;resizeLast=0;collapsible=1;marginBottom=0;whiteSpace=wrap;html=1;movable=1;resizable=1;rotatable=1;deletable=1;editable=1;locked=0;connectable=1;" parent="WIyWlLk6GJQsqaUBKTNV-1" vertex="1">
            <mxGeometry x="160" y="210" width="140" height="104" as="geometry">
              <mxRectangle x="160" y="110" width="100" height="30" as="alternateBounds" />
            </mxGeometry>
          </mxCell>
        </object>
        <mxCell id="GL9MwRehZxttcT5kYBKg-1" value="+ id: uint64" style="text;strokeColor=none;fillColor=none;align=left;verticalAlign=top;spacingLeft=4;spacingRight=4;overflow=hidden;rotatable=0;points=[[0,0.5],[1,0.5]];portConstraint=eastwest;whiteSpace=wrap;html=1;" parent="GL9MwRehZxttcT5kYBKg-0" vertex="1">
          <mxGeometry y="26" width="140" height="26" as="geometry" />
        </mxCell>
        <mxCell id="GL9MwRehZxttcT5kYBKg-2" value="+ email: string" style="text;strokeColor=none;fillColor=none;align=left;verticalAlign=top;spacingLeft=4;spacingRight=4;overflow=hidden;rotatable=0;points=[[0,0.5],[1,0.5]];portConstraint=eastwest;whiteSpace=wrap;html=1;" parent="GL9MwRehZxttcT5kYBKg-0" vertex="1">
          <mxGeometry y="52" width="140" height="26" as="geometry" />
        </mxCell>
        <mxCell id="GL9MwRehZxttcT5kYBKg-3" value="+ created_at: timestamp" style="text;strokeColor=none;fillColor=none;align=left;verticalAlign=top;spacingLeft=4;spacingRight=4;overflow=hidden;rotatable=0;points=[[0,0.5],[1,0.5]];portConstraint=eastwest;whiteSpace=wrap;html=1;" parent="GL9MwRehZxttcT5kYBKg-0" vertex="1">
          <mxGeometry y="78" width="140" height="26" as="geometry" />
        </mxCell>
        <mxCell id="GL9MwRehZxttcT5kYBKg-7" value="UserIdentity" style="swimlane;fontStyle=0;childLayout=stackLayout;horizontal=1;startSize=26;fillColor=none;horizontalStack=0;resizeParent=1;resizeParentMax=0;resizeLast=0;collapsible=1;marginBottom=0;whiteSpace=wrap;html=1;" parent="WIyWlLk6GJQsqaUBKTNV-1" vertex="1">
          <mxGeometry x="440" y="184" width="160" height="156" as="geometry" />
        </mxCell>
        <mxCell id="GL9MwRehZxttcT5kYBKg-11" value="+ id: uint64" style="text;strokeColor=none;fillColor=none;align=left;verticalAlign=top;spacingLeft=4;spacingRight=4;overflow=hidden;rotatable=0;points=[[0,0.5],[1,0.5]];portConstraint=eastwest;whiteSpace=wrap;html=1;" parent="GL9MwRehZxttcT5kYBKg-7" vertex="1">
          <mxGeometry y="26" width="160" height="26" as="geometry" />
        </mxCell>
        <mxCell id="GL9MwRehZxttcT5kYBKg-12" value="+ user_id: uint64" style="text;strokeColor=none;fillColor=none;align=left;verticalAlign=top;spacingLeft=4;spacingRight=4;overflow=hidden;rotatable=0;points=[[0,0.5],[1,0.5]];portConstraint=eastwest;whiteSpace=wrap;html=1;" parent="GL9MwRehZxttcT5kYBKg-7" vertex="1">
          <mxGeometry y="52" width="160" height="26" as="geometry" />
        </mxCell>
        <mxCell id="GL9MwRehZxttcT5kYBKg-8" value="+ provider: IdentityProvider" style="text;strokeColor=none;fillColor=none;align=left;verticalAlign=top;spacingLeft=4;spacingRight=4;overflow=hidden;rotatable=0;points=[[0,0.5],[1,0.5]];portConstraint=eastwest;whiteSpace=wrap;html=1;" parent="GL9MwRehZxttcT5kYBKg-7" vertex="1">
          <mxGeometry y="78" width="160" height="26" as="geometry" />
        </mxCell>
        <mxCell id="GL9MwRehZxttcT5kYBKg-9" value="+ provider_user_id: unit64?" style="text;strokeColor=none;fillColor=none;align=left;verticalAlign=top;spacingLeft=4;spacingRight=4;overflow=hidden;rotatable=0;points=[[0,0.5],[1,0.5]];portConstraint=eastwest;whiteSpace=wrap;html=1;" parent="GL9MwRehZxttcT5kYBKg-7" vertex="1">
          <mxGeometry y="104" width="160" height="26" as="geometry" />
        </mxCell>
        <mxCell id="GL9MwRehZxttcT5kYBKg-10" value="+ password_hash: string?" style="text;strokeColor=none;fillColor=none;align=left;verticalAlign=top;spacingLeft=4;spacingRight=4;overflow=hidden;rotatable=0;points=[[0,0.5],[1,0.5]];portConstraint=eastwest;whiteSpace=wrap;html=1;" parent="GL9MwRehZxttcT5kYBKg-7" vertex="1">
          <mxGeometry y="130" width="160" height="26" as="geometry" />
        </mxCell>
        <mxCell id="GL9MwRehZxttcT5kYBKg-13" style="edgeStyle=orthogonalEdgeStyle;rounded=0;orthogonalLoop=1;jettySize=auto;html=1;exitX=0;exitY=0.5;exitDx=0;exitDy=0;endArrow=diamondThin;endFill=1;endSize=10;" parent="WIyWlLk6GJQsqaUBKTNV-1" source="GL9MwRehZxttcT5kYBKg-12" target="GL9MwRehZxttcT5kYBKg-1" edge="1">
          <mxGeometry relative="1" as="geometry" />
        </mxCell>
        <mxCell id="GL9MwRehZxttcT5kYBKg-14" value="" style="fontStyle=1;align=center;verticalAlign=middle;childLayout=stackLayout;horizontal=1;horizontalStack=0;resizeParent=1;resizeParentMax=0;resizeLast=0;marginBottom=0;" parent="WIyWlLk6GJQsqaUBKTNV-1" vertex="1">
          <mxGeometry x="600" y="20" width="200" height="96" as="geometry" />
        </mxCell>
        <mxCell id="GL9MwRehZxttcT5kYBKg-15" value="&amp;lt;&amp;lt;enumeration&amp;gt;&amp;gt;" style="html=1;align=center;spacing=0;verticalAlign=middle;strokeColor=none;fillColor=none;whiteSpace=wrap;" parent="GL9MwRehZxttcT5kYBKg-14" vertex="1">
          <mxGeometry width="200" height="20" as="geometry" />
        </mxCell>
        <mxCell id="GL9MwRehZxttcT5kYBKg-16" value="IdentityProvider" style="html=1;align=center;spacing=0;verticalAlign=middle;strokeColor=none;fillColor=none;whiteSpace=wrap;fontStyle=1;" parent="GL9MwRehZxttcT5kYBKg-14" vertex="1">
          <mxGeometry y="20" width="200" height="14" as="geometry" />
        </mxCell>
        <mxCell id="GL9MwRehZxttcT5kYBKg-17" value="" style="line;strokeWidth=0.25;fillColor=none;align=left;verticalAlign=middle;spacingTop=-1;spacingLeft=3;spacingRight=3;rotatable=0;labelPosition=right;points=[];portConstraint=eastwest;" parent="GL9MwRehZxttcT5kYBKg-14" vertex="1">
          <mxGeometry y="34" width="200" height="8" as="geometry" />
        </mxCell>
        <mxCell id="GL9MwRehZxttcT5kYBKg-18" value="password" style="html=1;align=left;spacing=0;spacingLeft=8;verticalAlign=middle;strokeColor=none;fillColor=none;whiteSpace=wrap;" parent="GL9MwRehZxttcT5kYBKg-14" vertex="1">
          <mxGeometry y="42" width="200" height="16" as="geometry" />
        </mxCell>
        <mxCell id="GL9MwRehZxttcT5kYBKg-19" value="google" style="html=1;align=left;spacing=0;spacingLeft=8;verticalAlign=middle;strokeColor=none;fillColor=none;whiteSpace=wrap;" parent="GL9MwRehZxttcT5kYBKg-14" vertex="1">
          <mxGeometry y="58" width="200" height="16" as="geometry" />
        </mxCell>
        <mxCell id="GL9MwRehZxttcT5kYBKg-21" value="apple" style="html=1;align=left;spacing=0;spacingLeft=8;verticalAlign=middle;strokeColor=none;fillColor=none;whiteSpace=wrap;" parent="GL9MwRehZxttcT5kYBKg-14" vertex="1">
          <mxGeometry y="74" width="200" height="16" as="geometry" />
        </mxCell>
        <mxCell id="GL9MwRehZxttcT5kYBKg-20" value="" style="html=1;align=left;spacing=0;spacingLeft=8;verticalAlign=middle;strokeColor=none;fillColor=none;whiteSpace=wrap;" parent="GL9MwRehZxttcT5kYBKg-14" vertex="1">
          <mxGeometry y="90" width="200" height="6" as="geometry" />
        </mxCell>
        <mxCell id="GL9MwRehZxttcT5kYBKg-23" style="edgeStyle=orthogonalEdgeStyle;rounded=0;orthogonalLoop=1;jettySize=auto;html=1;endArrow=none;endFill=0;entryX=1;entryY=0.5;entryDx=0;entryDy=0;" parent="WIyWlLk6GJQsqaUBKTNV-1" source="GL9MwRehZxttcT5kYBKg-22" target="GL9MwRehZxttcT5kYBKg-8" edge="1">
          <mxGeometry relative="1" as="geometry" />
        </mxCell>
        <mxCell id="GL9MwRehZxttcT5kYBKg-22" value="&lt;font style=&quot;font-size: 10px;&quot;&gt;if provider is &#39;password&#39;:&lt;/font&gt;&lt;div&gt;&lt;font style=&quot;font-size: 10px;&quot;&gt;- provider_user_id is null&lt;/font&gt;&lt;/div&gt;&lt;div&gt;&lt;font style=&quot;font-size: 10px;&quot;&gt;- password_hash is not null&lt;/font&gt;&lt;/div&gt;" style="shape=note;size=20;whiteSpace=wrap;html=1;align=left;" parent="WIyWlLk6GJQsqaUBKTNV-1" vertex="1">
          <mxGeometry x="650" y="190" width="130" height="90" as="geometry" />
        </mxCell>
        <mxCell id="GL9MwRehZxttcT5kYBKg-25" value="PasswordResetToken" style="swimlane;fontStyle=0;childLayout=stackLayout;horizontal=1;startSize=26;fillColor=none;horizontalStack=0;resizeParent=1;resizeParentMax=0;resizeLast=0;collapsible=1;marginBottom=0;whiteSpace=wrap;html=1;" parent="WIyWlLk6GJQsqaUBKTNV-1" vertex="1">
          <mxGeometry x="160" y="20" width="170" height="156" as="geometry" />
        </mxCell>
        <mxCell id="GL9MwRehZxttcT5kYBKg-26" value="+ token: string" style="text;strokeColor=none;fillColor=none;align=left;verticalAlign=top;spacingLeft=4;spacingRight=4;overflow=hidden;rotatable=0;points=[[0,0.5],[1,0.5]];portConstraint=eastwest;whiteSpace=wrap;html=1;" parent="GL9MwRehZxttcT5kYBKg-25" vertex="1">
          <mxGeometry y="26" width="170" height="26" as="geometry" />
        </mxCell>
        <mxCell id="GL9MwRehZxttcT5kYBKg-27" value="+ user_id: unit64" style="text;strokeColor=none;fillColor=none;align=left;verticalAlign=top;spacingLeft=4;spacingRight=4;overflow=hidden;rotatable=0;points=[[0,0.5],[1,0.5]];portConstraint=eastwest;whiteSpace=wrap;html=1;" parent="GL9MwRehZxttcT5kYBKg-25" vertex="1">
          <mxGeometry y="52" width="170" height="26" as="geometry" />
        </mxCell>
        <mxCell id="GL9MwRehZxttcT5kYBKg-28" value="+ created_at: timestamp" style="text;strokeColor=none;fillColor=none;align=left;verticalAlign=top;spacingLeft=4;spacingRight=4;overflow=hidden;rotatable=0;points=[[0,0.5],[1,0.5]];portConstraint=eastwest;whiteSpace=wrap;html=1;" parent="GL9MwRehZxttcT5kYBKg-25" vertex="1">
          <mxGeometry y="78" width="170" height="26" as="geometry" />
        </mxCell>
        <mxCell id="GL9MwRehZxttcT5kYBKg-36" value="+ expires_at: timestamp" style="text;strokeColor=none;fillColor=none;align=left;verticalAlign=top;spacingLeft=4;spacingRight=4;overflow=hidden;rotatable=0;points=[[0,0.5],[1,0.5]];portConstraint=eastwest;whiteSpace=wrap;html=1;" parent="GL9MwRehZxttcT5kYBKg-25" vertex="1">
          <mxGeometry y="104" width="170" height="26" as="geometry" />
        </mxCell>
        <mxCell id="GL9MwRehZxttcT5kYBKg-37" value="+ is_used: bool" style="text;strokeColor=none;fillColor=none;align=left;verticalAlign=top;spacingLeft=4;spacingRight=4;overflow=hidden;rotatable=0;points=[[0,0.5],[1,0.5]];portConstraint=eastwest;whiteSpace=wrap;html=1;" parent="GL9MwRehZxttcT5kYBKg-25" vertex="1">
          <mxGeometry y="130" width="170" height="26" as="geometry" />
        </mxCell>
        <mxCell id="GL9MwRehZxttcT5kYBKg-29" style="edgeStyle=orthogonalEdgeStyle;rounded=0;orthogonalLoop=1;jettySize=auto;html=1;exitX=0;exitY=0.5;exitDx=0;exitDy=0;entryX=0;entryY=0.5;entryDx=0;entryDy=0;endArrow=ERone;endFill=0;startArrow=ERzeroToMany;startFill=0;" parent="WIyWlLk6GJQsqaUBKTNV-1" source="GL9MwRehZxttcT5kYBKg-27" target="GL9MwRehZxttcT5kYBKg-1" edge="1">
          <mxGeometry relative="1" as="geometry">
            <Array as="points">
              <mxPoint x="120" y="85" />
              <mxPoint x="120" y="249" />
            </Array>
          </mxGeometry>
        </mxCell>
        <mxCell id="gO2Us0Yuu7EVAVk2uMiL-0" value="Category" style="swimlane;fontStyle=0;childLayout=stackLayout;horizontal=1;startSize=26;fillColor=none;horizontalStack=0;resizeParent=1;resizeParentMax=0;resizeLast=0;collapsible=1;marginBottom=0;whiteSpace=wrap;html=1;" parent="WIyWlLk6GJQsqaUBKTNV-1" vertex="1">
          <mxGeometry x="350" y="400" width="140" height="182" as="geometry" />
        </mxCell>
        <mxCell id="gO2Us0Yuu7EVAVk2uMiL-1" value="+ id: uint64" style="text;strokeColor=none;fillColor=none;align=left;verticalAlign=top;spacingLeft=4;spacingRight=4;overflow=hidden;rotatable=0;points=[[0,0.5],[1,0.5]];portConstraint=eastwest;whiteSpace=wrap;html=1;" parent="gO2Us0Yuu7EVAVk2uMiL-0" vertex="1">
          <mxGeometry y="26" width="140" height="26" as="geometry" />
        </mxCell>
        <mxCell id="gO2Us0Yuu7EVAVk2uMiL-2" value="+ name: string" style="text;strokeColor=none;fillColor=none;align=left;verticalAlign=top;spacingLeft=4;spacingRight=4;overflow=hidden;rotatable=0;points=[[0,0.5],[1,0.5]];portConstraint=eastwest;whiteSpace=wrap;html=1;" parent="gO2Us0Yuu7EVAVk2uMiL-0" vertex="1">
          <mxGeometry y="52" width="140" height="26" as="geometry" />
        </mxCell>
        <mxCell id="MmqEpVi5qGR3039Pf8Mv-0" value="+ icon_type: IconType" style="text;strokeColor=none;fillColor=none;align=left;verticalAlign=top;spacingLeft=4;spacingRight=4;overflow=hidden;rotatable=0;points=[[0,0.5],[1,0.5]];portConstraint=eastwest;whiteSpace=wrap;html=1;" parent="gO2Us0Yuu7EVAVk2uMiL-0" vertex="1">
          <mxGeometry y="78" width="140" height="26" as="geometry" />
        </mxCell>
        <mxCell id="gO2Us0Yuu7EVAVk2uMiL-3" value="+ icon_key: string" style="text;strokeColor=none;fillColor=none;align=left;verticalAlign=top;spacingLeft=4;spacingRight=4;overflow=hidden;rotatable=0;points=[[0,0.5],[1,0.5]];portConstraint=eastwest;whiteSpace=wrap;html=1;" parent="gO2Us0Yuu7EVAVk2uMiL-0" vertex="1">
          <mxGeometry y="104" width="140" height="26" as="geometry" />
        </mxCell>
        <mxCell id="MmqEpVi5qGR3039Pf8Mv-9" value="+ color: uint32" style="text;strokeColor=none;fillColor=none;align=left;verticalAlign=top;spacingLeft=4;spacingRight=4;overflow=hidden;rotatable=0;points=[[0,0.5],[1,0.5]];portConstraint=eastwest;whiteSpace=wrap;html=1;" parent="gO2Us0Yuu7EVAVk2uMiL-0" vertex="1">
          <mxGeometry y="130" width="140" height="26" as="geometry" />
        </mxCell>
        <mxCell id="MmqEpVi5qGR3039Pf8Mv-11" value="+ type: CategoryType" style="text;strokeColor=none;fillColor=none;align=left;verticalAlign=top;spacingLeft=4;spacingRight=4;overflow=hidden;rotatable=0;points=[[0,0.5],[1,0.5]];portConstraint=eastwest;whiteSpace=wrap;html=1;" parent="gO2Us0Yuu7EVAVk2uMiL-0" vertex="1">
          <mxGeometry y="156" width="140" height="26" as="geometry" />
        </mxCell>
        <mxCell id="MmqEpVi5qGR3039Pf8Mv-1" value="" style="fontStyle=1;align=center;verticalAlign=middle;childLayout=stackLayout;horizontal=1;horizontalStack=0;resizeParent=1;resizeParentMax=0;resizeLast=0;marginBottom=0;" parent="WIyWlLk6GJQsqaUBKTNV-1" vertex="1">
          <mxGeometry x="550" y="370" width="200" height="80" as="geometry" />
        </mxCell>
        <mxCell id="MmqEpVi5qGR3039Pf8Mv-2" value="&amp;lt;&amp;lt;enumeration&amp;gt;&amp;gt;" style="html=1;align=center;spacing=0;verticalAlign=middle;strokeColor=none;fillColor=none;whiteSpace=wrap;" parent="MmqEpVi5qGR3039Pf8Mv-1" vertex="1">
          <mxGeometry width="200" height="20" as="geometry" />
        </mxCell>
        <mxCell id="MmqEpVi5qGR3039Pf8Mv-3" value="IconType" style="html=1;align=center;spacing=0;verticalAlign=middle;strokeColor=none;fillColor=none;whiteSpace=wrap;fontStyle=1;" parent="MmqEpVi5qGR3039Pf8Mv-1" vertex="1">
          <mxGeometry y="20" width="200" height="14" as="geometry" />
        </mxCell>
        <mxCell id="MmqEpVi5qGR3039Pf8Mv-4" value="" style="line;strokeWidth=0.25;fillColor=none;align=left;verticalAlign=middle;spacingTop=-1;spacingLeft=3;spacingRight=3;rotatable=0;labelPosition=right;points=[];portConstraint=eastwest;" parent="MmqEpVi5qGR3039Pf8Mv-1" vertex="1">
          <mxGeometry y="34" width="200" height="8" as="geometry" />
        </mxCell>
        <mxCell id="MmqEpVi5qGR3039Pf8Mv-5" value="emoji" style="html=1;align=left;spacing=0;spacingLeft=8;verticalAlign=middle;strokeColor=none;fillColor=none;whiteSpace=wrap;" parent="MmqEpVi5qGR3039Pf8Mv-1" vertex="1">
          <mxGeometry y="42" width="200" height="16" as="geometry" />
        </mxCell>
        <mxCell id="MmqEpVi5qGR3039Pf8Mv-6" value="asset" style="html=1;align=left;spacing=0;spacingLeft=8;verticalAlign=middle;strokeColor=none;fillColor=none;whiteSpace=wrap;" parent="MmqEpVi5qGR3039Pf8Mv-1" vertex="1">
          <mxGeometry y="58" width="200" height="16" as="geometry" />
        </mxCell>
        <mxCell id="MmqEpVi5qGR3039Pf8Mv-8" value="" style="html=1;align=left;spacing=0;spacingLeft=8;verticalAlign=middle;strokeColor=none;fillColor=none;whiteSpace=wrap;" parent="MmqEpVi5qGR3039Pf8Mv-1" vertex="1">
          <mxGeometry y="74" width="200" height="6" as="geometry" />
        </mxCell>
        <mxCell id="MmqEpVi5qGR3039Pf8Mv-12" value="" style="fontStyle=1;align=center;verticalAlign=middle;childLayout=stackLayout;horizontal=1;horizontalStack=0;resizeParent=1;resizeParentMax=0;resizeLast=0;marginBottom=0;" parent="WIyWlLk6GJQsqaUBKTNV-1" vertex="1">
          <mxGeometry x="550" y="470" width="200" height="96" as="geometry" />
        </mxCell>
        <mxCell id="MmqEpVi5qGR3039Pf8Mv-13" value="&amp;lt;&amp;lt;enumeration&amp;gt;&amp;gt;" style="html=1;align=center;spacing=0;verticalAlign=middle;strokeColor=none;fillColor=none;whiteSpace=wrap;" parent="MmqEpVi5qGR3039Pf8Mv-12" vertex="1">
          <mxGeometry width="200" height="20" as="geometry" />
        </mxCell>
        <mxCell id="MmqEpVi5qGR3039Pf8Mv-14" value="CategoryType" style="html=1;align=center;spacing=0;verticalAlign=middle;strokeColor=none;fillColor=none;whiteSpace=wrap;fontStyle=1;" parent="MmqEpVi5qGR3039Pf8Mv-12" vertex="1">
          <mxGeometry y="20" width="200" height="14" as="geometry" />
        </mxCell>
        <mxCell id="MmqEpVi5qGR3039Pf8Mv-15" value="" style="line;strokeWidth=0.25;fillColor=none;align=left;verticalAlign=middle;spacingTop=-1;spacingLeft=3;spacingRight=3;rotatable=0;labelPosition=right;points=[];portConstraint=eastwest;" parent="MmqEpVi5qGR3039Pf8Mv-12" vertex="1">
          <mxGeometry y="34" width="200" height="8" as="geometry" />
        </mxCell>
        <mxCell id="MmqEpVi5qGR3039Pf8Mv-16" value="expense" style="html=1;align=left;spacing=0;spacingLeft=8;verticalAlign=middle;strokeColor=none;fillColor=none;whiteSpace=wrap;" parent="MmqEpVi5qGR3039Pf8Mv-12" vertex="1">
          <mxGeometry y="42" width="200" height="16" as="geometry" />
        </mxCell>
        <mxCell id="MmqEpVi5qGR3039Pf8Mv-17" value="income" style="html=1;align=left;spacing=0;spacingLeft=8;verticalAlign=middle;strokeColor=none;fillColor=none;whiteSpace=wrap;" parent="MmqEpVi5qGR3039Pf8Mv-12" vertex="1">
          <mxGeometry y="58" width="200" height="16" as="geometry" />
        </mxCell>
        <mxCell id="MmqEpVi5qGR3039Pf8Mv-19" value="both" style="html=1;align=left;spacing=0;spacingLeft=8;verticalAlign=middle;strokeColor=none;fillColor=none;whiteSpace=wrap;" parent="MmqEpVi5qGR3039Pf8Mv-12" vertex="1">
          <mxGeometry y="74" width="200" height="16" as="geometry" />
        </mxCell>
        <mxCell id="MmqEpVi5qGR3039Pf8Mv-18" value="" style="html=1;align=left;spacing=0;spacingLeft=8;verticalAlign=middle;strokeColor=none;fillColor=none;whiteSpace=wrap;" parent="MmqEpVi5qGR3039Pf8Mv-12" vertex="1">
          <mxGeometry y="90" width="200" height="6" as="geometry" />
        </mxCell>
        <mxCell id="MmqEpVi5qGR3039Pf8Mv-20" value="Transaction" style="swimlane;fontStyle=0;childLayout=stackLayout;horizontal=1;startSize=26;fillColor=none;horizontalStack=0;resizeParent=1;resizeParentMax=0;resizeLast=0;collapsible=1;marginBottom=0;whiteSpace=wrap;html=1;" parent="WIyWlLk6GJQsqaUBKTNV-1" vertex="1">
          <mxGeometry x="30" y="370" width="170" height="286" as="geometry" />
        </mxCell>
        <mxCell id="MmqEpVi5qGR3039Pf8Mv-21" value="+ id: uint64" style="text;strokeColor=none;fillColor=none;align=left;verticalAlign=top;spacingLeft=4;spacingRight=4;overflow=hidden;rotatable=0;points=[[0,0.5],[1,0.5]];portConstraint=eastwest;whiteSpace=wrap;html=1;" parent="MmqEpVi5qGR3039Pf8Mv-20" vertex="1">
          <mxGeometry y="26" width="170" height="26" as="geometry" />
        </mxCell>
        <mxCell id="MmqEpVi5qGR3039Pf8Mv-22" value="+ userId: uint64" style="text;strokeColor=none;fillColor=none;align=left;verticalAlign=top;spacingLeft=4;spacingRight=4;overflow=hidden;rotatable=0;points=[[0,0.5],[1,0.5]];portConstraint=eastwest;whiteSpace=wrap;html=1;" parent="MmqEpVi5qGR3039Pf8Mv-20" vertex="1">
          <mxGeometry y="52" width="170" height="26" as="geometry" />
        </mxCell>
        <mxCell id="MmqEpVi5qGR3039Pf8Mv-23" value="+ type: TransactionType" style="text;strokeColor=none;fillColor=none;align=left;verticalAlign=top;spacingLeft=4;spacingRight=4;overflow=hidden;rotatable=0;points=[[0,0.5],[1,0.5]];portConstraint=eastwest;whiteSpace=wrap;html=1;" parent="MmqEpVi5qGR3039Pf8Mv-20" vertex="1">
          <mxGeometry y="78" width="170" height="26" as="geometry" />
        </mxCell>
        <mxCell id="MmqEpVi5qGR3039Pf8Mv-24" value="+ amount: Decimal" style="text;strokeColor=none;fillColor=none;align=left;verticalAlign=top;spacingLeft=4;spacingRight=4;overflow=hidden;rotatable=0;points=[[0,0.5],[1,0.5]];portConstraint=eastwest;whiteSpace=wrap;html=1;" parent="MmqEpVi5qGR3039Pf8Mv-20" vertex="1">
          <mxGeometry y="104" width="170" height="26" as="geometry" />
        </mxCell>
        <mxCell id="MmqEpVi5qGR3039Pf8Mv-25" value="+ date: Date" style="text;strokeColor=none;fillColor=none;align=left;verticalAlign=top;spacingLeft=4;spacingRight=4;overflow=hidden;rotatable=0;points=[[0,0.5],[1,0.5]];portConstraint=eastwest;whiteSpace=wrap;html=1;" parent="MmqEpVi5qGR3039Pf8Mv-20" vertex="1">
          <mxGeometry y="130" width="170" height="26" as="geometry" />
        </mxCell>
        <mxCell id="MmqEpVi5qGR3039Pf8Mv-26" value="+ categoryId: uint64?" style="text;strokeColor=none;fillColor=none;align=left;verticalAlign=top;spacingLeft=4;spacingRight=4;overflow=hidden;rotatable=0;points=[[0,0.5],[1,0.5]];portConstraint=eastwest;whiteSpace=wrap;html=1;" parent="MmqEpVi5qGR3039Pf8Mv-20" vertex="1">
          <mxGeometry y="156" width="170" height="26" as="geometry" />
        </mxCell>
        <mxCell id="MmqEpVi5qGR3039Pf8Mv-28" value="+ comment: string" style="text;strokeColor=none;fillColor=none;align=left;verticalAlign=top;spacingLeft=4;spacingRight=4;overflow=hidden;rotatable=0;points=[[0,0.5],[1,0.5]];portConstraint=eastwest;whiteSpace=wrap;html=1;" parent="MmqEpVi5qGR3039Pf8Mv-20" vertex="1">
          <mxGeometry y="182" width="170" height="26" as="geometry" />
        </mxCell>
        <mxCell id="MmqEpVi5qGR3039Pf8Mv-29" value="+ location: string?" style="text;strokeColor=none;fillColor=none;align=left;verticalAlign=top;spacingLeft=4;spacingRight=4;overflow=hidden;rotatable=0;points=[[0,0.5],[1,0.5]];portConstraint=eastwest;whiteSpace=wrap;html=1;" parent="MmqEpVi5qGR3039Pf8Mv-20" vertex="1">
          <mxGeometry y="208" width="170" height="26" as="geometry" />
        </mxCell>
        <mxCell id="MmqEpVi5qGR3039Pf8Mv-30" value="+ accountId: uint64" style="text;strokeColor=none;fillColor=none;align=left;verticalAlign=top;spacingLeft=4;spacingRight=4;overflow=hidden;rotatable=0;points=[[0,0.5],[1,0.5]];portConstraint=eastwest;whiteSpace=wrap;html=1;" parent="MmqEpVi5qGR3039Pf8Mv-20" vertex="1">
          <mxGeometry y="234" width="170" height="26" as="geometry" />
        </mxCell>
        <mxCell id="_2zhjMBjDmjTXHZ-PArZ-0" value="+ accountToId: uint64?" style="text;strokeColor=none;fillColor=none;align=left;verticalAlign=top;spacingLeft=4;spacingRight=4;overflow=hidden;rotatable=0;points=[[0,0.5],[1,0.5]];portConstraint=eastwest;whiteSpace=wrap;html=1;" parent="MmqEpVi5qGR3039Pf8Mv-20" vertex="1">
          <mxGeometry y="260" width="170" height="26" as="geometry" />
        </mxCell>
        <mxCell id="MmqEpVi5qGR3039Pf8Mv-27" style="edgeStyle=orthogonalEdgeStyle;rounded=0;orthogonalLoop=1;jettySize=auto;html=1;exitX=1;exitY=0.5;exitDx=0;exitDy=0;entryX=0;entryY=0.5;entryDx=0;entryDy=0;endArrow=ERzeroToOne;endFill=0;startArrow=ERone;startFill=0;" parent="WIyWlLk6GJQsqaUBKTNV-1" source="MmqEpVi5qGR3039Pf8Mv-26" target="gO2Us0Yuu7EVAVk2uMiL-1" edge="1">
          <mxGeometry relative="1" as="geometry" />
        </mxCell>
        <mxCell id="MmqEpVi5qGR3039Pf8Mv-31" style="rounded=0;orthogonalLoop=1;jettySize=auto;html=1;entryX=0;entryY=0.5;entryDx=0;entryDy=0;endArrow=ERone;endFill=0;startArrow=ERzeroToMany;startFill=0;exitX=1;exitY=0.5;exitDx=0;exitDy=0;edgeStyle=orthogonalEdgeStyle;" parent="WIyWlLk6GJQsqaUBKTNV-1" source="MmqEpVi5qGR3039Pf8Mv-22" target="GL9MwRehZxttcT5kYBKg-1" edge="1">
          <mxGeometry relative="1" as="geometry">
            <mxPoint x="200" y="435" as="sourcePoint" />
          </mxGeometry>
        </mxCell>
        <mxCell id="_2zhjMBjDmjTXHZ-PArZ-1" value="Classes" style="shape=umlFrame;whiteSpace=wrap;html=1;pointerEvents=0;" parent="WIyWlLk6GJQsqaUBKTNV-1" vertex="1">
          <mxGeometry width="820" height="680" as="geometry" />
        </mxCell>
      </root>
    </mxGraphModel>
  </diagram>
</mxfile>
